<?xml version="1.0" encoding="utf-8"?>
<svg version="1.1" xmlns:xlink="http://www.w3.org/1999/xlink" width="12px" height="12px" viewBox="633 45.5  12 12" xmlns="http://www.w3.org/2000/svg">
  <path d="M 639 45.5  C 642.36 45.5  645 48.14  645 51.5  C 645 54.86  642.36 57.5  639 57.5  C 635.64 57.5  633 54.86  633 51.5  C 633 48.14  635.64 45.5  639 45.5  Z " fill-rule="nonzero" fill="#ffffff" stroke="none" />
  <path d="M 639 46  C 642.08 46  644.5 48.42  644.5 51.5  C 644.5 54.58  642.08 57  639 57  C 635.92 57  633.5 54.58  633.5 51.5  C 633.5 48.42  635.92 46  639 46  Z " stroke-width="1" stroke="#797979" fill="none" />
  <path d="M 639 54.5  C 637.32 54.5  636 53.18  636 51.5  C 636 49.82  637.32 48.5  639 48.5  C 640.68 48.5  642 49.82  642 51.5  C 642 53.18  640.68 54.5  639 54.5  " fill-rule="nonzero" fill="#797979" stroke="none" />
</svg>