<?xml version="1.0" encoding="utf-8"?>
<svg version="1.1" xmlns:xlink="http://www.w3.org/1999/xlink" width="12px" height="12px" viewBox="373 45.5  12 12" xmlns="http://www.w3.org/2000/svg">
  <path d="M 379 45.5  C 382.36 45.5  385 48.14  385 51.5  C 385 54.86  382.36 57.5  379 57.5  C 375.64 57.5  373 54.86  373 51.5  C 373 48.14  375.64 45.5  379 45.5  Z " fill-rule="nonzero" fill="#ffffff" stroke="none" />
  <path d="M 379 46  C 382.08 46  384.5 48.42  384.5 51.5  C 384.5 54.58  382.08 57  379 57  C 375.92 57  373.5 54.58  373.5 51.5  C 373.5 48.42  375.92 46  379 46  Z " stroke-width="1" stroke="#797979" fill="none" />
  <path d="M 379 54.5  C 377.32 54.5  376 53.18  376 51.5  C 376 49.82  377.32 48.5  379 48.5  C 380.68 48.5  382 49.82  382 51.5  C 382 53.18  380.68 54.5  379 54.5  " fill-rule="nonzero" fill="#797979" stroke="none" />
</svg>