<?xml version="1.0" encoding="utf-8"?>
<svg version="1.1" xmlns:xlink="http://www.w3.org/1999/xlink" width="117px" height="28px" xmlns="http://www.w3.org/2000/svg">
  <defs>
    <mask fill="white" id="clip13">
      <path d="M 0 4.2  L 2.30541871921182 2.08495752123937  L 5.31248661383596 0.825587206396801  L 9.94499999999998 0  L 117 0  L 117 28  L 9.94499999999998 28  L 5.31248661383596 27.272363818091  L 2.30541871921182 25.7331334332834  L 0 23.8  L 0 4.2  Z " fill-rule="evenodd" />
    </mask>
  </defs>
  <g transform="matrix(1 0 0 1 -611 -389 )">
    <path d="M 0 4.2  L 2.30541871921182 2.08495752123937  L 5.31248661383596 0.825587206396801  L 9.94499999999998 0  L 117 0  L 117 28  L 9.94499999999998 28  L 5.31248661383596 27.272363818091  L 2.30541871921182 25.7331334332834  L 0 23.8  L 0 4.2  Z " fill-rule="nonzero" fill="#7f7f7f" stroke="none" transform="matrix(1 0 0 1 611 389 )" />
    <path d="M 0 4.2  L 2.30541871921182 2.08495752123937  L 5.31248661383596 0.825587206396801  L 9.94499999999998 0  L 117 0  L 117 28  L 9.94499999999998 28  L 5.31248661383596 27.272363818091  L 2.30541871921182 25.7331334332834  L 0 23.8  L 0 4.2  Z " stroke-width="2" stroke="#7f7f7f" fill="none" transform="matrix(1 0 0 1 611 389 )" mask="url(#clip13)" />
  </g>
</svg>