<?xml version="1.0" encoding="utf-8"?>
<svg version="1.1" xmlns:xlink="http://www.w3.org/1999/xlink" width="121px" height="28px" xmlns="http://www.w3.org/2000/svg">
  <defs>
    <mask fill="white" id="clip17">
      <path d="M 0 4.2  L 2.38423645320197 2.08495752123937  L 5.49411008781326 0.825587206396801  L 10.285 0  L 121 0  L 121 28  L 10.285 28  L 5.49411008781326 27.272363818091  L 2.38423645320197 25.7331334332834  L 0 23.8  L 0 4.2  Z " fill-rule="evenodd" />
    </mask>
  </defs>
  <g transform="matrix(1 0 0 1 -111 -311 )">
    <path d="M 0 4.2  L 2.38423645320197 2.08495752123937  L 5.49411008781326 0.825587206396801  L 10.285 0  L 121 0  L 121 28  L 10.285 28  L 5.49411008781326 27.272363818091  L 2.38423645320197 25.7331334332834  L 0 23.8  L 0 4.2  Z " fill-rule="nonzero" fill="#7f7f7f" stroke="none" transform="matrix(1 0 0 1 111 311 )" />
    <path d="M 0 4.2  L 2.38423645320197 2.08495752123937  L 5.49411008781326 0.825587206396801  L 10.285 0  L 121 0  L 121 28  L 10.285 28  L 5.49411008781326 27.272363818091  L 2.38423645320197 25.7331334332834  L 0 23.8  L 0 4.2  Z " stroke-width="2" stroke="#7f7f7f" fill="none" transform="matrix(1 0 0 1 111 311 )" mask="url(#clip17)" />
  </g>
</svg>