<?xml version="1.0" encoding="utf-8"?>
<svg version="1.1" xmlns:xlink="http://www.w3.org/1999/xlink" width="118px" height="28px" xmlns="http://www.w3.org/2000/svg">
  <defs>
    <mask fill="white" id="clip21">
      <path d="M 0 4.2  L 2.32512315270936 2.08495752123937  L 5.35789248233029 0.825587206396801  L 10.03 0  L 118 0  L 118 28  L 10.03 28  L 5.35789248233029 27.272363818091  L 2.32512315270936 25.7331334332834  L 0 23.8  L 0 4.2  Z " fill-rule="evenodd" />
    </mask>
  </defs>
  <g transform="matrix(1 0 0 1 -980 -369 )">
    <path d="M 0 4.2  L 2.32512315270936 2.08495752123937  L 5.35789248233029 0.825587206396801  L 10.03 0  L 118 0  L 118 28  L 10.03 28  L 5.35789248233029 27.272363818091  L 2.32512315270936 25.7331334332834  L 0 23.8  L 0 4.2  Z " fill-rule="nonzero" fill="#7f7f7f" stroke="none" transform="matrix(1 0 0 1 980 369 )" />
    <path d="M 0 4.2  L 2.32512315270936 2.08495752123937  L 5.35789248233029 0.825587206396801  L 10.03 0  L 118 0  L 118 28  L 10.03 28  L 5.35789248233029 27.272363818091  L 2.32512315270936 25.7331334332834  L 0 23.8  L 0 4.2  Z " stroke-width="2" stroke="#7f7f7f" fill="none" transform="matrix(1 0 0 1 980 369 )" mask="url(#clip21)" />
  </g>
</svg>