<?xml version="1.0" encoding="utf-8"?>
<svg version="1.1" xmlns:xlink="http://www.w3.org/1999/xlink" width="71px" height="28px" xmlns="http://www.w3.org/2000/svg">
  <defs>
    <mask fill="white" id="clip24">
      <path d="M 0 4.2  L 1.39901477832512 2.08495752123937  L 3.22381666309704 0.825587206396801  L 6.03499999999999 0  L 71 0  L 71 28  L 6.03499999999999 28  L 3.22381666309704 27.272363818091  L 1.39901477832512 25.7331334332834  L 0 23.8  L 0 4.2  Z " fill-rule="evenodd" />
    </mask>
  </defs>
  <g transform="matrix(1 0 0 1 -111 -369 )">
    <path d="M 0 4.2  L 1.39901477832512 2.08495752123937  L 3.22381666309704 0.825587206396801  L 6.03499999999999 0  L 71 0  L 71 28  L 6.03499999999999 28  L 3.22381666309704 27.272363818091  L 1.39901477832512 25.7331334332834  L 0 23.8  L 0 4.2  Z " fill-rule="nonzero" fill="#7f7f7f" stroke="none" transform="matrix(1 0 0 1 111 369 )" />
    <path d="M 0 4.2  L 1.39901477832512 2.08495752123937  L 3.22381666309704 0.825587206396801  L 6.03499999999999 0  L 71 0  L 71 28  L 6.03499999999999 28  L 3.22381666309704 27.272363818091  L 1.39901477832512 25.7331334332834  L 0 23.8  L 0 4.2  Z " stroke-width="2" stroke="#7f7f7f" fill="none" transform="matrix(1 0 0 1 111 369 )" mask="url(#clip24)" />
  </g>
</svg>