<?xml version="1.0" encoding="utf-8"?>
<svg version="1.1" xmlns:xlink="http://www.w3.org/1999/xlink" width="70px" height="27px" xmlns="http://www.w3.org/2000/svg">
  <defs>
    <mask fill="white" id="clip29">
      <path d="M 0 4.05  L 1.37931034482759 2.01049475262368  L 3.17841079460271 0.796101949025487  L 5.94999999999999 0  L 70 0  L 70 27  L 5.94999999999999 27  L 3.17841079460271 26.2983508245877  L 1.37931034482759 24.8140929535232  L 0 22.95  L 0 4.05  Z " fill-rule="evenodd" />
    </mask>
  </defs>
  <g transform="matrix(1 0 0 1 -1104 -252 )">
    <path d="M 0 4.05  L 1.37931034482759 2.01049475262368  L 3.17841079460271 0.796101949025487  L 5.94999999999999 0  L 70 0  L 70 27  L 5.94999999999999 27  L 3.17841079460271 26.2983508245877  L 1.37931034482759 24.8140929535232  L 0 22.95  L 0 4.05  Z " fill-rule="nonzero" fill="#7f7f7f" stroke="none" transform="matrix(1 0 0 1 1104 252 )" />
    <path d="M 0 4.05  L 1.37931034482759 2.01049475262368  L 3.17841079460271 0.796101949025487  L 5.94999999999999 0  L 70 0  L 70 27  L 5.94999999999999 27  L 3.17841079460271 26.2983508245877  L 1.37931034482759 24.8140929535232  L 0 22.95  L 0 4.05  Z " stroke-width="2" stroke="#7f7f7f" fill="none" transform="matrix(1 0 0 1 1104 252 )" mask="url(#clip29)" />
  </g>
</svg>