<?xml version="1.0" encoding="utf-8"?>
<svg version="1.1" xmlns:xlink="http://www.w3.org/1999/xlink" width="12px" height="12px" viewBox="972 260.5  12 12" xmlns="http://www.w3.org/2000/svg">
  <path d="M 978 260.5  C 981.36 260.5  984 263.14  984 266.5  C 984 269.86  981.36 272.5  978 272.5  C 974.64 272.5  972 269.86  972 266.5  C 972 263.14  974.64 260.5  978 260.5  Z " fill-rule="nonzero" fill="#ffffff" stroke="none" />
  <path d="M 978 261  C 981.08 261  983.5 263.42  983.5 266.5  C 983.5 269.58  981.08 272  978 272  C 974.92 272  972.5 269.58  972.5 266.5  C 972.5 263.42  974.92 261  978 261  Z " stroke-width="1" stroke="#797979" fill="none" />
  <path d="M 978 269.5  C 976.32 269.5  975 268.18  975 266.5  C 975 264.82  976.32 263.5  978 263.5  C 979.68 263.5  981 264.82  981 266.5  C 981 268.18  979.68 269.5  978 269.5  " fill-rule="nonzero" fill="#797979" stroke="none" />
</svg>