<?xml version="1.0" encoding="utf-8"?>
<svg version="1.1" xmlns:xlink="http://www.w3.org/1999/xlink" width="12px" height="12px" viewBox="800 260.5  12 12" xmlns="http://www.w3.org/2000/svg">
  <path d="M 806 260.5  C 809.36 260.5  812 263.14  812 266.5  C 812 269.86  809.36 272.5  806 272.5  C 802.64 272.5  800 269.86  800 266.5  C 800 263.14  802.64 260.5  806 260.5  Z " fill-rule="nonzero" fill="#ffffff" stroke="none" />
  <path d="M 806 261  C 809.08 261  811.5 263.42  811.5 266.5  C 811.5 269.58  809.08 272  806 272  C 802.92 272  800.5 269.58  800.5 266.5  C 800.5 263.42  802.92 261  806 261  Z " stroke-width="1" stroke="#797979" fill="none" />
  <path d="M 806 269.5  C 804.32 269.5  803 268.18  803 266.5  C 803 264.82  804.32 263.5  806 263.5  C 807.68 263.5  809 264.82  809 266.5  C 809 268.18  807.68 269.5  806 269.5  " fill-rule="nonzero" fill="#797979" stroke="none" />
</svg>