<?xml version="1.0" encoding="utf-8"?>
<svg version="1.1" xmlns:xlink="http://www.w3.org/1999/xlink" width="12px" height="12px" viewBox="670 260.5  12 12" xmlns="http://www.w3.org/2000/svg">
  <path d="M 676 260.5  C 679.36 260.5  682 263.14  682 266.5  C 682 269.86  679.36 272.5  676 272.5  C 672.64 272.5  670 269.86  670 266.5  C 670 263.14  672.64 260.5  676 260.5  Z " fill-rule="nonzero" fill="#ffffff" stroke="none" />
  <path d="M 676 261  C 679.08 261  681.5 263.42  681.5 266.5  C 681.5 269.58  679.08 272  676 272  C 672.92 272  670.5 269.58  670.5 266.5  C 670.5 263.42  672.92 261  676 261  Z " stroke-width="1" stroke="#797979" fill="none" />
  <path d="M 676 269.5  C 674.32 269.5  673 268.18  673 266.5  C 673 264.82  674.32 263.5  676 263.5  C 677.68 263.5  679 264.82  679 266.5  C 679 268.18  677.68 269.5  676 269.5  " fill-rule="nonzero" fill="#797979" stroke="none" />
</svg>