<?xml version="1.0" encoding="utf-8"?>
<svg version="1.1" xmlns:xlink="http://www.w3.org/1999/xlink" width="12px" height="12px" viewBox="540 260.5  12 12" xmlns="http://www.w3.org/2000/svg">
  <path d="M 546 260.5  C 549.36 260.5  552 263.14  552 266.5  C 552 269.86  549.36 272.5  546 272.5  C 542.64 272.5  540 269.86  540 266.5  C 540 263.14  542.64 260.5  546 260.5  Z " fill-rule="nonzero" fill="#ffffff" stroke="none" />
  <path d="M 546 261  C 549.08 261  551.5 263.42  551.5 266.5  C 551.5 269.58  549.08 272  546 272  C 542.92 272  540.5 269.58  540.5 266.5  C 540.5 263.42  542.92 261  546 261  Z " stroke-width="1" stroke="#797979" fill="none" />
  <path d="M 546 269.5  C 544.32 269.5  543 268.18  543 266.5  C 543 264.82  544.32 263.5  546 263.5  C 547.68 263.5  549 264.82  549 266.5  C 549 268.18  547.68 269.5  546 269.5  " fill-rule="nonzero" fill="#797979" stroke="none" />
</svg>