<?xml version="1.0" encoding="utf-8"?>
<svg version="1.1" xmlns:xlink="http://www.w3.org/1999/xlink" width="12px" height="12px" viewBox="410 260.5  12 12" xmlns="http://www.w3.org/2000/svg">
  <path d="M 416 260.5  C 419.36 260.5  422 263.14  422 266.5  C 422 269.86  419.36 272.5  416 272.5  C 412.64 272.5  410 269.86  410 266.5  C 410 263.14  412.64 260.5  416 260.5  Z " fill-rule="nonzero" fill="#ffffff" stroke="none" />
  <path d="M 416 261  C 419.08 261  421.5 263.42  421.5 266.5  C 421.5 269.58  419.08 272  416 272  C 412.92 272  410.5 269.58  410.5 266.5  C 410.5 263.42  412.92 261  416 261  Z " stroke-width="1" stroke="#797979" fill="none" />
  <path d="M 416 269.5  C 414.32 269.5  413 268.18  413 266.5  C 413 264.82  414.32 263.5  416 263.5  C 417.68 263.5  419 264.82  419 266.5  C 419 268.18  417.68 269.5  416 269.5  " fill-rule="nonzero" fill="#797979" stroke="none" />
</svg>